<?xml version="1.0" standalone="no"?>
<!DOCTYPE svg PUBLIC "-//W3C//DTD SVG 20010904//EN"
 "http://www.w3.org/TR/2001/REC-SVG-20010904/DTD/svg10.dtd">
<svg version="1.0" xmlns="http://www.w3.org/2000/svg"
 width="820.000000pt" height="820.000000pt" viewBox="0 0 820.000000 820.000000"
 preserveAspectRatio="xMidYMid meet">
<metadata>
Created by potrace 1.11, written by Peter Selinger 2001-2013
</metadata>
<g transform="translate(0.000000,820.000000) scale(0.100000,-0.100000)"
fill="#000000" stroke="none">
<path d="M214 7511 c-2 -2 -45 -5 -96 -6 -115 -3 -109 -2 -101 -20 3 -9 8 -14
11 -11 2 3 16 -3 29 -14 13 -10 31 -16 39 -13 8 3 14 0 14 -7 0 -6 5 -8 10 -5
6 3 10 1 10 -4 0 -6 3 -10 8 -9 15 3 68 -15 86 -31 10 -9 21 -15 25 -14 14 5
51 -10 51 -20 0 -6 3 -7 7 -4 3 4 17 0 30 -8 13 -9 23 -13 23 -9 0 3 19 -5 43
-19 23 -13 58 -30 78 -36 20 -6 44 -19 55 -29 16 -15 47 -33 64 -36 9 -2 105
-51 115 -59 36 -27 84 -58 105 -67 13 -6 27 -15 30 -18 3 -4 28 -22 55 -39 28
-18 59 -39 70 -48 11 -8 45 -33 75 -55 30 -22 73 -56 95 -75 22 -19 49 -43 61
-53 99 -82 196 -176 304 -292 59 -64 240 -287 240 -297 1 -4 14 -24 30 -43 17
-19 30 -40 30 -47 0 -7 5 -13 10 -13 6 0 10 -7 10 -15 0 -8 4 -15 10 -15 5 0
25 -28 45 -62 20 -35 57 -97 82 -138 52 -86 205 -380 197 -380 -3 0 2 -7 10
-16 9 -8 16 -23 16 -33 0 -9 4 -21 8 -26 5 -6 15 -26 22 -45 7 -19 23 -57 35
-85 19 -42 34 -83 40 -105 1 -3 5 -12 8 -20 16 -36 126 -349 132 -372 2 -9 8
-25 14 -36 6 -11 7 -22 4 -26 -3 -3 -2 -6 4 -6 5 0 10 -6 10 -12 1 -20 11 -58
28 -113 9 -27 19 -61 21 -74 3 -14 8 -29 12 -35 3 -6 7 -15 8 -21 1 -5 8 -30
15 -55 16 -56 15 -52 22 -70 8 -20 31 -102 32 -115 0 -5 4 -16 9 -23 4 -7 5
-16 2 -19 -3 -3 0 -15 5 -26 6 -11 12 -29 14 -41 2 -11 8 -36 13 -53 6 -18 8
-33 4 -33 -4 0 -2 -4 4 -8 6 -4 16 -27 23 -52 7 -25 17 -61 22 -80 6 -19 11
-42 13 -50 1 -9 5 -20 8 -26 7 -10 10 -21 24 -89 4 -16 10 -34 14 -40 6 -8 14
-33 25 -85 1 -3 14 -45 30 -95 29 -89 34 -106 39 -135 3 -15 7 -26 22 -65 4
-11 8 -22 9 -25 1 -3 4 -12 8 -20 14 -38 48 -141 49 -150 0 -3 4 -13 10 -23 5
-10 11 -26 13 -35 2 -9 13 -42 25 -72 12 -30 26 -71 32 -90 5 -19 14 -39 19
-45 5 -5 9 -17 9 -27 0 -10 4 -18 8 -18 5 0 9 -6 10 -12 1 -22 54 -143 66
-150 6 -4 8 -8 3 -8 -4 0 -1 -13 7 -29 9 -16 12 -31 9 -35 -4 -3 -1 -6 5 -6 7
0 12 -4 12 -9 0 -15 93 -204 107 -219 7 -7 13 -18 13 -24 0 -5 9 -23 21 -39
11 -17 35 -55 51 -87 17 -31 34 -59 37 -62 4 -3 35 -45 69 -95 34 -49 72 -102
84 -117 13 -15 38 -44 56 -66 87 -105 371 -392 387 -392 2 0 22 -18 45 -41 22
-22 40 -38 40 -35 0 6 36 -23 67 -53 25 -25 133 -101 142 -101 5 0 11 -4 13
-10 2 -5 53 -41 113 -79 61 -38 116 -75 123 -81 6 -6 12 -8 12 -6 0 3 29 -12
65 -34 36 -22 65 -38 65 -35 0 3 15 -4 33 -14 53 -30 195 -91 287 -124 47 -16
103 -37 125 -45 22 -8 53 -16 69 -18 16 -2 35 -9 42 -15 8 -6 14 -9 14 -5 0 3
12 1 26 -4 14 -6 40 -12 57 -14 18 -2 55 -9 82 -16 28 -6 66 -13 85 -15 19 -2
49 -6 65 -9 95 -16 339 -22 465 -11 115 10 158 15 190 22 19 4 42 8 50 9 8 2
26 5 40 8 14 3 34 8 45 10 91 20 242 64 276 82 16 8 29 12 29 9 0 -3 10 0 23
7 12 7 25 11 30 10 4 -1 7 2 7 7 0 5 13 12 29 16 49 11 189 86 386 208 11 6
22 14 25 17 3 3 28 21 55 40 28 19 55 39 60 45 6 6 28 24 50 40 49 36 241 226
318 315 140 161 272 377 380 620 44 101 128 395 141 500 3 25 9 65 12 90 4 25
8 57 8 73 0 15 4 27 8 27 11 0 10 368 -1 389 -6 10 -13 51 -16 92 -4 40 -8 76
-10 79 -3 5 -13 59 -21 115 -1 11 -3 20 -4 20 -1 0 -3 11 -6 25 -2 14 -11 52
-20 85 -8 33 -17 68 -19 78 -2 9 -7 22 -11 28 -3 6 -12 32 -19 57 -14 48 -49
146 -78 215 -9 20 -16 40 -16 42 0 3 -9 22 -19 43 -11 20 -30 60 -43 87 -13
28 -28 53 -34 57 -5 4 -7 8 -3 8 4 0 -8 26 -27 58 -19 31 -35 60 -35 64 0 4
-26 46 -58 95 -32 48 -61 96 -65 106 -3 9 -11 17 -17 17 -5 0 -10 5 -10 11 0
7 -16 32 -36 55 -19 24 -32 44 -27 44 4 0 3 4 -2 8 -6 4 -51 57 -99 117 -98
122 -113 138 -248 275 -98 100 -249 239 -277 254 -9 5 -18 12 -21 15 -22 27
-313 221 -330 221 -6 0 -10 5 -10 12 0 6 -3 9 -6 5 -3 -3 -31 10 -62 29 -32
19 -62 34 -69 34 -6 0 -13 3 -15 8 -4 8 -203 107 -298 147 -36 15 -72 31 -81
35 -27 14 -348 140 -356 140 -5 0 -21 7 -37 15 -16 9 -37 17 -45 19 -9 2 -24
6 -33 10 -9 4 -22 9 -30 10 -7 2 -26 8 -41 14 -15 7 -40 15 -55 18 -15 4 -40
13 -55 21 -16 8 -36 16 -45 18 -10 2 -48 16 -87 30 -38 14 -81 27 -94 29 -13
2 -27 9 -31 16 -4 7 -12 10 -17 7 -5 -3 -20 0 -34 7 -13 7 -30 11 -37 8 -6 -2
-12 1 -12 7 0 6 -3 10 -8 9 -10 -2 -65 13 -77 22 -5 3 -30 13 -55 20 -25 7
-49 16 -55 19 -5 3 -19 7 -30 8 -11 2 -81 24 -155 49 -74 26 -139 47 -145 48
-5 1 -23 7 -40 13 -55 21 -70 26 -80 29 -19 5 -130 45 -150 54 -11 5 -69 25
-130 46 -60 20 -113 42 -117 48 -4 6 -8 8 -8 4 0 -3 -24 3 -52 14 -29 11 -60
20 -68 20 -8 0 -24 3 -35 7 -11 5 -42 16 -70 26 -27 9 -93 33 -145 51 -109 40
-262 94 -335 119 -27 10 -77 28 -110 41 -33 13 -87 32 -120 43 -33 11 -112 38
-175 61 -172 61 -263 92 -280 95 -9 2 -50 14 -91 28 -296 100 -742 225 -900
252 -19 3 -50 10 -69 15 -45 12 -84 19 -140 25 -25 3 -53 8 -62 11 -33 10 -60
14 -171 29 -27 4 -56 8 -65 10 -10 1 -44 6 -77 9 -86 10 -146 17 -175 21 -97
15 -654 28 -666 16z"/>
</g>
</svg>
